<svg version="1.1" xmlns="http://www.w3.org/2000/svg" xmlns:xlink="http://www.w3.org/1999/xlink" width="48" height="48"><defs><linearGradient x1="8.44322" y1="14.10024" x2="54.75958" y2="49.10257" gradientUnits="userSpaceOnUse" id="color-1"><stop offset="0" stop-color="#000000" stop-opacity="0.3"></stop><stop offset="1" stop-color="#000000" stop-opacity="0"></stop></linearGradient><filter id="dropshadow-base"><feColorMatrix type="matrix" values="0 0 0 0 0  0 0 0 0 0  0 0 0 0 0  0 0 0 .8 0"></feColorMatrix> <feOffset dx="0" dy="1"></feOffset> <feGaussianBlur stdDeviation="1"></feGaussianBlur> <feComposite in="SourceGraphic"></feComposite></filter><filter id="dropshadow-banner" x="-10%" y="-10%" width="120%" height="130%"><feColorMatrix type="matrix" values="0 0 0 0 0  0 0 0 0 0  0 0 0 0 0  0 0 0 .4 0"></feColorMatrix> <feOffset dx="0" dy="1"></feOffset> <feGaussianBlur stdDeviation="0.5"></feGaussianBlur> <feComposite in="SourceGraphic"></feComposite></filter></defs><g fill="none" fill-rule="nonzero" stroke="none" stroke-width="none" stroke-linecap="butt" stroke-linejoin="miter" stroke-miterlimit="10" stroke-dasharray="" stroke-dashoffset="0" font-family="none" font-weight="none" font-size="none" text-anchor="none" style="mix-blend-mode: normal"><path d="M2,24c0,-12.15026 9.84974,-22 22,-22c12.15026,0 22,9.84974 22,22c0,12.15026 -9.84974,22 -22,22c-12.15026,0 -22,-9.84974 -22,-22z" id="base 1 9" fill="#2e9f27" stroke-width="1"></path><path d="M32.6421,15.33694l12.94203,12.94203c-1.99137,10.10209 -10.898,17.72102 -21.58413,17.72102c-1.28892,0 -2.55194,-0.11084 -3.78007,-0.32351l-11.77671,-11.77671h3.53564l-3.53564,-3.53564c0,-3.29521 6.59749,-4.94989 9.89978,-4.94989c0.34363,0 0.72295,0.01792 1.1268,0.05374l-4.1259,-4.1259c-0.76811,-0.76811 -1.24366,-1.8288 -1.24366,-2.9991c0,-2.34058 1.90216,-4.24275 4.24275,-4.24275c1.16676,0 2.22106,0.47267 2.98509,1.2367l4.28188,4.28188c-0.12714,-0.40279 -0.19572,-0.83141 -0.19572,-1.27584c0,-2.34058 1.90216,-4.24275 4.24275,-4.24275c1.16676,0 2.22106,0.47267 2.98509,1.2367z" fill="url(#color-1)" stroke-width="1"></path><path d="M29.65701,22.58575c2.34059,0 4.22862,-1.90217 4.22862,-4.24276c0,-2.34059 -1.88803,-4.24276 -4.22862,-4.24276c-2.34059,0 -4.24276,1.90217 -4.24276,4.24276c0,2.34059 1.90217,4.24276 4.24276,4.24276zM18.34299,22.58575c2.34059,0 4.22862,-1.90217 4.22862,-4.24276c0,-2.34059 -1.88803,-4.24276 -4.22862,-4.24276c-2.34059,0 -4.24276,1.90217 -4.24276,4.24276c0,2.34059 1.90217,4.24276 4.24276,4.24276zM18.34299,25.41425c-3.30228,0 -9.89977,1.65468 -9.89977,4.94989v3.53563h19.79954v-3.53563c0,-3.29521 -6.59749,-4.94989 -9.89977,-4.94989zM29.65701,25.41425c-0.41013,0 -0.86977,0.02829 -1.36475,0.07778c1.64053,1.1809 2.77901,2.77194 2.77901,4.8721v3.53563h8.48552v-3.53563c0,-3.29521 -6.59749,-4.94989 -9.89977,-4.94989z" fill="none" stroke-width="0"></path><path d="M25.41425,18.34299c0,-2.34059 1.90217,-4.24276 4.24276,-4.24276c2.34059,0 4.22862,1.90217 4.22862,4.24276c0,2.34059 -1.88803,4.24276 -4.22862,4.24276c-2.34059,0 -4.24276,-1.90217 -4.24276,-4.24276zM14.10023,18.34299c0,-2.34059 1.90217,-4.24276 4.24276,-4.24276c2.34059,0 4.22862,1.90217 4.22862,4.24276c0,2.34059 -1.88803,4.24276 -4.22862,4.24276c-2.34059,0 -4.24276,-1.90217 -4.24276,-4.24276zM28.24276,30.36414v3.53563h-19.79954v-3.53563c0,-3.29521 6.59749,-4.94989 9.89977,-4.94989c3.30228,0 9.89977,1.65468 9.89977,4.94989zM39.55678,30.36414v3.53563h-8.48552v-3.53563c0,-2.10017 -1.13847,-3.6912 -2.77901,-4.8721c0.49499,-0.0495 0.95462,-0.07778 1.36475,-0.07778c3.30228,0 9.89977,1.65468 9.89977,4.94989z" fill="#ffffff" stroke-width="0"></path><path d="M2,24c0,-12.15026 9.84974,-22 22,-22c12.15026,0 22,9.84974 22,22c0,12.15026 -9.84974,22 -22,22c-12.15026,0 -22,-9.84974 -22,-22z" id="base 1 5 1" fill="none" stroke-width="1"></path><path d="M2,24c0,-12.15026 9.84974,-22 22,-22c12.15026,0 22,9.84974 22,22c0,12.15026 -9.84974,22 -22,22c-12.15026,0 -22,-9.84974 -22,-22z" id="base 1 1 1" fill="none" stroke-width="1"></path><g fill="#000000" stroke-width="1" font-family="Roboto, sans-serif" font-weight="400" font-size="14" text-anchor="start"></g><rect x="2" y="2" width="44" height="22" fill="none" stroke-width="1"></rect><path d="M2,24v-22h44v22z" fill="none" stroke-width="1"></path><path d="M2,24v-22h44v22z" fill="none" stroke-width="1"></path><path d="M2,24v-22h44v22z" fill="none" stroke-width="1"></path><path d="M2,24v-22h44v22z" fill="none" stroke-width="1"></path><g fill="#000000" stroke-width="1" font-family="Roboto, sans-serif" font-weight="400" font-size="14" text-anchor="start"></g><rect x="2" y="2" width="44" height="22" fill="none" stroke-width="1"></rect><path d="M2,24v-22h44v22z" fill="none" stroke-width="1"></path><path d="M2,24v-22h44v22z" fill="none" stroke-width="1"></path><path d="M2,24v-22h44v22z" fill="none" stroke-width="1"></path><path d="M2,24v-22h44v22z" fill="none" stroke-width="1"></path></g></svg>
